<?xml version="1.0" standalone="no"?>
<!DOCTYPE svg PUBLIC "-//W3C//DTD SVG 20010904//EN"
 "http://www.w3.org/TR/2001/REC-SVG-20010904/DTD/svg10.dtd">
<svg version="1.0" xmlns="http://www.w3.org/2000/svg"
 width="164.000000pt" height="164.000000pt" viewBox="0 0 164.000000 164.000000"
 preserveAspectRatio="xMidYMid meet">
<metadata>
Created by potrace 1.11, written by Peter Selinger 2001-2013
</metadata>
<g transform="translate(0.000000,164.000000) scale(0.100000,-0.100000)"
fill="#000000" stroke="none">
<path d="M724 1536 c-52 -58 -59 -143 -19 -214 14 -25 25 -57 25 -73 0 -22 5
-29 20 -29 16 0 20 7 20 31 0 32 22 63 35 51 5 -4 5 -2 1 5 -4 7 -1 25 7 40
24 47 12 123 -26 175 -22 30 -45 35 -63 14z m42 -63 c12 -29 13 -76 2 -111 -8
-27 -12 -31 -24 -21 -8 7 -13 18 -10 26 3 8 2 12 -3 9 -5 -3 -9 13 -9 36 -1
64 26 101 44 61z"/>
<path d="M461 1361 c-20 -13 -20 -76 1 -123 19 -44 60 -78 95 -78 14 0 15 -2
4 -9 -11 -7 -11 -9 0 -14 10 -4 10 -6 2 -6 -7 -1 -13 -6 -13 -12 0 -5 3 -8 8
-6 4 3 7 -26 7 -64 0 -38 -3 -69 -6 -69 -4 0 -10 -7 -13 -16 -5 -14 -4 -15 8
-5 13 11 15 9 11 -8 -3 -14 0 -19 7 -15 8 5 9 1 5 -12 -7 -19 -7 -19 7 0 9 11
22 16 31 13 16 -7 21 -27 7 -27 -5 0 -9 -6 -9 -13 0 -9 10 -12 30 -9 23 4 28
2 22 -9 -6 -11 -5 -12 6 -1 14 13 59 17 59 4 0 -4 9 -13 21 -20 12 -8 18 -9
15 -4 -3 6 -3 12 1 15 5 2 3 2 -4 1 -7 -2 -15 1 -18 6 -3 5 20 8 52 6 64 -2
98 8 86 27 -10 16 -11 67 -1 61 5 -3 7 -13 6 -21 -2 -11 6 -17 23 -20 l26 -3
-2 77 c-1 43 2 84 8 91 5 6 5 12 0 12 -5 0 -10 11 -11 24 -1 19 5 25 26 31 15
3 37 16 49 27 12 11 25 18 30 15 8 -5 10 5 15 91 4 65 -10 77 -61 56 -45 -18
-79 -58 -93 -110 l-11 -41 -139 -1 c-104 -1 -138 2 -136 11 6 36 -22 92 -64
125 -23 18 -73 31 -87 23z m73 -72 c14 -17 26 -36 27 -42 0 -7 2 -20 4 -29 2
-10 -1 -18 -6 -18 -5 0 -9 7 -9 15 0 8 -5 15 -11 15 -5 0 -7 -6 -4 -12 4 -7
-5 1 -19 17 -25 29 -36 85 -17 85 5 0 21 -14 35 -31z m478 6 c-2 -14 -7 -23
-11 -20 -4 2 -7 -5 -7 -16 1 -11 -12 -28 -31 -40 l-32 -20 10 33 c5 18 9 34 9
35 0 5 55 53 61 53 3 0 4 -11 1 -25z m-126 -158 c2 -14 -1 -16 -11 -7 -19 16
-233 14 -252 -2 -11 -9 -13 -8 -11 3 4 19 35 24 162 24 97 0 109 -2 112 -18z
m-256 -37 c0 -5 -4 -10 -10 -10 -5 0 -10 5 -10 10 0 6 5 10 10 10 6 0 10 -4
10 -10z m260 -20 c0 -5 -2 -10 -4 -10 -3 0 -8 5 -11 10 -3 6 -1 10 4 10 6 0
11 -4 11 -10z m-265 -40 c-4 -46 -13 -47 -12 -1 0 22 4 38 8 36 3 -3 5 -18 4
-35z m265 -10 c0 -5 -5 -10 -11 -10 -5 0 -7 5 -4 10 3 6 8 10 11 10 2 0 4 -4
4 -10z m-173 -22 c-3 -8 -6 -5 -6 6 -1 11 2 17 5 13 3 -3 4 -12 1 -19z m70
-20 c-3 -8 -6 -5 -6 6 -1 11 2 17 5 13 3 -3 4 -12 1 -19z m-161 -13 c-4 -24
-16 -30 -16 -7 0 12 4 22 9 22 5 0 8 -7 7 -15z m98 0 c3 -8 1 -15 -4 -15 -6 0
-10 7 -10 15 0 8 2 15 4 15 2 0 6 -7 10 -15z m63 -27 c-3 -8 -6 -5 -6 6 -1 11
2 17 5 13 3 -3 4 -12 1 -19z m-57 -8 c0 -5 -2 -10 -4 -10 -3 0 -8 5 -11 10 -3
6 -1 10 4 10 6 0 11 -4 11 -10z"/>
<path d="M834 1348 c-19 -23 -19 -23 2 -5 11 9 24 14 29 10 4 -5 5 -2 1 5 -9
16 -10 16 -32 -10z"/>
<path d="M834 1293 c16 -20 36 -23 36 -6 0 4 -3 3 -7 0 -3 -4 -16 1 -27 10
-21 18 -21 18 -2 -4z"/>
<path d="M800 1286 c0 -2 8 -10 18 -17 15 -13 16 -12 3 4 -13 16 -21 21 -21
13z"/>
<path d="M1094 1245 c0 -13 3 -22 7 -19 8 4 6 30 -2 38 -3 3 -5 -5 -5 -19z"/>
<path d="M1090 1200 c0 -5 -6 -10 -13 -10 -24 0 -67 -25 -67 -39 0 -7 -6 -11
-14 -8 -11 4 -13 1 -9 -10 4 -11 2 -14 -5 -9 -8 5 -10 1 -5 -10 5 -13 3 -15
-8 -9 -11 7 -11 5 1 -10 14 -17 13 -18 -2 -12 -10 3 -18 2 -18 -3 0 -6 5 -10
10 -10 6 0 10 -9 10 -20 0 -11 -4 -20 -10 -20 -5 0 -7 8 -3 18 3 9 3 14 -1 10
-4 -4 -9 -20 -10 -37 -2 -22 2 -31 13 -31 14 0 14 -1 1 -10 -10 -6 -11 -10 -2
-10 6 0 12 -5 12 -11 0 -5 -4 -7 -10 -4 -5 3 -10 1 -10 -4 0 -6 5 -11 10 -11
6 0 10 -5 10 -11 0 -5 -3 -8 -7 -6 -15 9 -42 -39 -31 -54 8 -12 9 -12 5 1 -4
18 22 47 31 34 4 -5 16 -14 27 -20 19 -11 20 -8 18 47 0 33 3 57 7 54 5 -3 10
-2 12 2 1 5 20 16 40 27 22 11 42 31 49 50 7 17 18 34 23 38 7 5 6 8 -3 8 -10
0 -11 3 -2 13 6 8 7 17 3 21 -4 4 -8 12 -8 17 -1 5 -2 12 -3 17 -2 12 -41 33
-41 22z m-5 -77 c-3 -46 -4 -48 -34 -66 -19 -11 -32 -14 -36 -7 -3 5 -2 10 4
10 6 0 8 7 5 15 -4 9 7 27 26 45 18 16 33 30 35 30 1 0 1 -12 0 -27z"/>
<path d="M1051 1091 c-8 -5 -9 -11 -3 -15 5 -3 12 1 16 9 6 17 6 18 -13 6z"/>
<path d="M368 1165 c-12 -61 24 -140 73 -158 16 -6 29 -15 29 -20 0 -4 5 -5
10 -2 6 4 10 -13 10 -44 0 -44 2 -50 20 -48 17 1 20 8 20 44 0 23 5 45 10 48
6 3 10 15 10 26 0 10 -4 19 -10 19 -17 0 -11 28 8 40 14 9 13 10 -8 4 -14 -3
-22 -3 -18 1 4 4 1 20 -8 36 -8 16 -11 29 -7 30 5 0 -2 4 -15 10 -13 5 -21 13
-18 17 3 5 0 9 -7 10 -96 15 -94 15 -99 -13z m99 -76 c-3 -11 -2 -17 3 -14 4
3 10 -4 13 -15 3 -12 0 -20 -6 -20 -17 1 -47 25 -47 39 0 6 -4 11 -10 11 -5 0
-10 14 -10 31 l0 30 31 -22 c21 -15 29 -27 26 -40z"/>
<path d="M1133 1056 c-3 -6 -3 -8 2 -4 4 4 13 3 20 -2 8 -7 12 -5 12 3 0 16
-25 18 -34 3z"/>
<path d="M1120 1006 c7 -7 13 -7 20 0 6 6 3 10 -10 10 -13 0 -16 -4 -10 -10z"/>
<path d="M1055 991 c-3 -5 0 -13 6 -17 8 -5 9 -3 4 6 -6 10 -4 12 9 7 10 -4
15 -3 11 3 -8 13 -22 13 -30 1z"/>
<path d="M1116 973 c-6 -14 -5 -15 5 -6 7 7 10 15 7 18 -3 3 -9 -2 -12 -12z"/>
<path d="M1025 959 c-4 -6 -4 -13 -1 -16 3 -4 6 -1 6 6 0 8 6 11 16 7 8 -3 12
-2 9 4 -8 13 -22 13 -30 -1z"/>
<path d="M1073 928 c-1 -10 3 -18 9 -18 6 0 8 3 5 7 -4 3 -2 11 3 18 7 8 6 12
-3 12 -7 0 -14 -9 -14 -19z"/>
<path d="M892 912 c10 -11 8 -17 -7 -28 -13 -10 -15 -14 -4 -14 8 0 22 12 32
25 16 23 16 24 1 18 -10 -4 -15 -2 -11 4 3 5 0 10 -8 10 -12 0 -12 -3 -3 -15z"/>
<path d="M1020 905 c0 -2 6 -8 13 -14 10 -8 14 -7 14 2 0 8 -6 14 -14 14 -7 0
-13 -1 -13 -2z"/>
<path d="M1076 878 c3 -5 10 -6 15 -3 13 9 11 12 -6 12 -8 0 -12 -4 -9 -9z"/>
<path d="M810 865 c22 -12 21 -19 -1 -17 -4 1 -5 -8 -2 -18 3 -12 0 -20 -8
-20 -7 0 -10 -3 -7 -6 4 -3 0 -21 -8 -40 -13 -30 -13 -34 1 -34 9 0 18 7 21
15 9 21 34 19 55 -7 11 -11 19 -16 19 -9 0 7 4 10 9 6 5 -3 13 0 17 6 4 8 3 9
-4 5 -6 -3 -16 2 -22 13 -7 13 -7 22 0 26 6 3 8 20 5 38 -8 45 -18 49 -11 5 6
-38 -7 -54 -17 -20 -2 9 -8 26 -13 36 -5 14 -4 17 4 12 7 -4 12 -2 12 3 0 6
-3 11 -7 12 -5 0 -21 2 -38 4 l-30 4 25 -14z"/>
<path d="M615 857 c-2 -7 -3 -37 -2 -69 l0 -56 31 3 c17 1 36 3 42 4 14 1 25
51 12 51 -5 0 -7 9 -3 19 5 17 -16 50 -33 52 -4 0 -15 2 -25 4 -10 2 -20 -2
-22 -8z m45 -37 c0 -5 -4 -10 -10 -10 -5 0 -10 5 -10 10 0 6 5 10 10 10 6 0
10 -4 10 -10z m4 -51 c-8 -14 -24 -10 -24 6 0 9 6 12 15 9 8 -4 12 -10 9 -15z"/>
<path d="M910 863 c0 -15 27 -36 39 -29 6 4 9 -14 6 -49 -2 -42 0 -55 11 -55
8 0 15 6 15 13 1 6 2 17 4 22 1 6 3 14 3 18 1 5 13 -5 27 -22 14 -16 34 -29
45 -28 10 1 16 5 14 9 -3 5 -9 6 -13 4 -4 -3 -8 19 -7 49 1 52 -7 75 -21 62
-3 -4 -6 -20 -6 -37 l0 -30 -32 35 c-25 29 -33 33 -44 23 -10 -11 -15 -9 -27
6 -8 11 -14 15 -14 9z"/>
<path d="M455 800 c-27 -57 -28 -94 -1 -57 16 20 45 23 52 4 5 -14 34 -19 34
-7 0 9 -50 120 -54 120 -1 0 -15 -27 -31 -60z"/>
<path d="M717 841 c-4 -17 -3 -21 5 -13 5 5 8 16 6 23 -3 8 -7 3 -11 -10z"/>
<path d="M776 845 c-3 -8 -1 -15 4 -15 6 0 10 7 10 15 0 8 -2 15 -4 15 -2 0
-6 -7 -10 -15z"/>
<path d="M265 793 c0 -35 5 -58 13 -61 7 -2 12 6 12 22 0 19 5 26 20 26 13 0
20 -7 20 -19 0 -10 6 -24 13 -30 11 -9 14 1 14 54 0 48 -3 65 -13 65 -8 0 -14
-9 -14 -20 0 -13 -7 -20 -20 -20 -13 0 -20 7 -20 20 0 11 -6 20 -13 20 -9 0
-13 -17 -12 -57z"/>
<path d="M1163 838 c-6 -7 -13 -25 -17 -40 -3 -15 -13 -34 -22 -42 -8 -9 -14
-16 -12 -17 27 -6 38 -5 42 7 3 8 15 14 26 14 12 0 19 -4 16 -9 -5 -7 15 -21
30 -21 9 0 3 22 -18 70 -23 53 -29 58 -45 38z"/>
<path d="M743 804 c9 -11 15 -24 12 -27 -3 -4 -2 -5 2 -2 4 3 8 13 9 21 1 9 0
13 -3 10 -4 -3 -13 0 -22 6 -12 10 -12 7 2 -8z"/>
<path d="M697 715 c-4 -8 -2 -17 3 -20 5 -3 7 -19 5 -35 -3 -30 -3 -30 19 -13
21 16 22 19 7 31 -9 7 -10 10 -2 6 10 -5 11 -1 6 16 -5 17 -4 21 5 15 9 -6 11
-4 5 5 -6 10 -11 10 -20 -3 -15 -21 -26 -22 -19 -2 4 8 4 15 1 15 -3 0 -7 -7
-10 -15z"/>
<path d="M515 710 c-4 -6 -11 -8 -16 -5 -9 6 -12 -11 -9 -57 1 -18 -4 -28 -12
-28 -11 0 -11 -2 0 -9 8 -4 13 -19 12 -32 -1 -13 -2 -77 -1 -141 1 -111 2
-118 21 -118 21 0 24 15 20 87 -1 28 1 32 21 28 12 -2 18 -1 15 3 -4 4 -13 7
-19 7 -8 0 -13 23 -13 65 -3 123 -7 210 -10 210 -2 0 -6 -5 -9 -10z"/>
<path d="M893 705 c0 -8 4 -12 9 -9 5 3 6 10 3 15 -9 13 -12 11 -12 -6z"/>
<path d="M1091 711 c-8 -5 -24 -7 -35 -5 -20 3 -21 0 -21 -125 l0 -128 27 7
c14 5 30 5 34 2 4 -4 4 -2 1 4 -13 23 -15 64 -4 64 8 0 9 3 1 8 -6 4 -10 33
-10 64 l1 57 75 -1 c70 -1 75 0 78 20 2 12 7 20 12 17 5 -3 11 -2 14 3 2 4
-21 7 -52 7 -31 -1 -65 3 -76 8 -13 6 -16 6 -12 -2 4 -6 0 -11 -9 -11 -9 0
-13 5 -10 10 8 12 4 12 -14 1z"/>
<path d="M284 700 c-11 -3 -19 -12 -19 -20 0 -12 17 -16 74 -20 61 -4 75 -8
77 -22 1 -11 -4 -18 -14 -19 -14 0 -15 -1 -2 -7 11 -5 15 -25 16 -77 1 -64 3
-70 23 -73 18 -3 21 2 22 35 0 21 1 75 2 120 1 46 0 83 -3 84 -20 4 -160 3
-176 -1z"/>
<path d="M766 703 c-3 -3 -6 -21 -6 -39 0 -26 3 -31 18 -27 14 3 17 12 14 34
-4 30 -15 43 -26 32z"/>
<path d="M808 692 c3 -8 5 -23 6 -34 1 -23 32 -33 43 -16 3 6 1 8 -5 4 -14 -9
-26 32 -14 47 8 9 4 12 -13 12 -15 0 -21 -5 -17 -13z"/>
<path d="M965 699 c-11 -4 -14 -8 -7 -8 9 -1 12 -45 12 -187 0 -145 -3 -184
-12 -178 -7 4 -10 3 -5 -1 4 -5 18 -9 32 -10 l25 -1 0 188 c0 103 1 191 3 195
3 10 -26 11 -48 2z"/>
<path d="M660 670 c0 -21 5 -30 16 -30 10 0 12 4 7 13 -4 6 -6 20 -5 30 2 9
-2 17 -7 17 -6 0 -11 -13 -11 -30z"/>
<path d="M556 682 c-3 -5 1 -9 9 -9 8 0 12 4 9 9 -3 4 -7 8 -9 8 -2 0 -6 -4
-9 -8z"/>
<path d="M549 643 c-13 -16 -12 -17 4 -4 16 13 21 21 13 21 -2 0 -10 -8 -17
-17z"/>
<path d="M1266 642 c-2 -4 4 -8 14 -8 10 0 16 4 14 8 -3 4 -9 8 -14 8 -5 0
-11 -4 -14 -8z"/>
<path d="M776 613 c-4 -4 -19 -7 -34 -8 -43 0 -34 -27 10 -30 34 -2 37 0 36
22 -3 26 -2 25 -12 16z"/>
<path d="M815 600 c-3 -5 -1 -10 4 -10 6 0 11 5 11 10 0 6 -2 10 -4 10 -3 0
-8 -4 -11 -10z"/>
<path d="M576 581 c9 -18 9 -95 0 -110 -4 -6 -3 -11 2 -11 10 0 8 -42 -3 -59
-3 -6 -2 -11 4 -11 6 0 6 -11 1 -30 -5 -19 -5 -28 1 -25 8 5 13 -15 12 -51 0
-18 23 -12 36 9 7 11 8 16 2 13 -7 -5 -10 7 -8 34 1 22 7 40 12 40 6 0 4 4 -4
9 -8 5 -11 16 -8 24 3 8 3 18 -1 22 -4 4 -8 19 -8 33 -3 61 -8 101 -13 97 -2
-3 -10 3 -18 13 -8 9 -11 11 -7 3z"/>
<path d="M1151 573 c7 -12 15 -20 18 -17 3 2 -3 12 -13 22 -17 16 -18 16 -5
-5z"/>
<path d="M1096 562 c-3 -4 4 -9 15 -9 23 -2 25 3 4 10 -8 4 -16 3 -19 -1z"/>
<path d="M894 533 c-4 -15 -7 -44 -7 -64 0 -21 -3 -37 -6 -35 -3 2 -6 -33 -6
-79 0 -73 2 -83 17 -82 10 1 17 6 17 12 -3 26 2 46 10 40 6 -3 7 6 2 22 -9 31
-4 56 9 48 5 -3 12 -1 15 5 4 6 3 10 -2 9 -24 -4 -28 6 -27 76 1 75 -10 98
-22 48z"/>
<path d="M546 542 c-3 -5 1 -9 9 -9 8 0 12 4 9 9 -3 4 -7 8 -9 8 -2 0 -6 -4
-9 -8z"/>
<path d="M730 419 c0 -64 -4 -98 -10 -94 -5 3 -10 1 -10 -4 0 -6 5 -11 10 -11
14 0 12 -43 -2 -59 -10 -11 -10 -13 0 -7 7 4 12 1 12 -8 0 -9 7 -16 16 -16 9
0 12 -5 8 -12 -5 -10 -4 -10 5 -2 12 11 15 79 12 257 -1 50 -3 57 -21 57 -19
0 -20 -7 -20 -101z"/>
<path d="M810 495 c-7 -8 -9 -15 -4 -15 4 0 3 -5 -4 -12 -8 -8 -9 -15 -1 -25
9 -10 8 -13 -1 -13 -10 0 -10 -3 0 -15 10 -12 10 -15 -1 -15 -11 0 -11 -2 1
-10 9 -6 10 -10 3 -10 -8 0 -9 -9 -3 -30 5 -19 5 -30 -1 -30 -6 0 -7 -6 -2
-12 12 -20 10 -41 -7 -62 -11 -14 -11 -17 -1 -11 8 4 16 2 21 -6 7 -10 11 -10
24 0 8 7 15 16 14 19 -1 4 3 18 10 32 11 22 11 23 -1 8 -12 -15 -13 -6 -13 63
1 43 -3 79 -7 79 -4 0 -3 10 4 21 9 17 8 20 -2 14 -9 -6 -11 -2 -7 13 7 27 -6
37 -22 17z"/>
<path d="M1106 498 c3 -5 10 -6 15 -3 13 9 11 12 -6 12 -8 0 -12 -4 -9 -9z"/>
<path d="M666 467 c1 -18 -1 -36 -4 -42 -10 -16 -10 -168 0 -187 13 -26 42
-24 35 2 -3 11 -1 23 5 26 6 4 5 10 -3 15 -10 6 -10 9 -2 9 7 0 10 7 6 17 -8
20 -8 81 -1 89 4 3 2 20 -3 37 -6 21 -5 33 2 38 8 4 7 9 -2 15 -27 16 -35 11
-33 -19z"/>
<path d="M1120 480 c-9 -6 -10 -10 -3 -10 6 0 15 5 18 10 8 12 4 12 -15 0z"/>
<path d="M857 375 c-4 -8 -3 -16 1 -19 4 -3 9 4 9 15 2 23 -3 25 -10 4z"/>
<path d="M1080 340 c-9 -6 -10 -10 -3 -10 6 0 15 5 18 10 8 12 4 12 -15 0z"/>
<path d="M855 331 c-3 -5 -2 -12 3 -15 5 -3 9 1 9 9 0 17 -3 19 -12 6z"/>
<path d="M956 273 c-6 -14 -5 -15 5 -6 7 7 10 15 7 18 -3 3 -9 -2 -12 -12z"/>
<path d="M895 249 c-4 -6 -14 -8 -22 -5 -8 3 -11 2 -8 -3 8 -14 42 -9 42 6 0
16 -4 16 -12 2z"/>
<path d="M770 186 c0 -2 7 -7 16 -10 8 -3 12 -2 9 4 -6 10 -25 14 -25 6z"/>
</g>
</svg>
